<?xml version="1.0" standalone="no"?>
<!DOCTYPE svg PUBLIC "-//W3C//DTD SVG 20010904//EN"
 "http://www.w3.org/TR/2001/REC-SVG-20010904/DTD/svg10.dtd">
<svg version="1.0" xmlns="http://www.w3.org/2000/svg"
 width="700.000000pt" height="700.000000pt" viewBox="0 0 700.000000 700.000000"
 preserveAspectRatio="xMidYMid meet">
<metadata>
Created by potrace 1.14, written by Peter Selinger 2001-2017
</metadata>
<g transform="translate(0.000000,700.000000) scale(0.100000,-0.100000)"
fill="#000000" stroke="none">
<path d="M3197 6682 c-12 -5 5 -15 60 -31 43 -14 83 -27 88 -31 6 -4 33 -15
60 -25 277 -100 641 -318 915 -549 88 -73 342 -322 400 -391 14 -17 48 -57 75
-90 l50 -60 -70 60 c-38 33 -72 63 -75 66 -19 23 -247 185 -332 236 -285 170
-657 317 -908 358 -19 3 -51 10 -70 15 -19 5 -60 11 -91 15 -31 3 -65 7 -75 9
-81 16 -410 23 -519 11 -27 -3 -74 -7 -104 -10 -95 -10 -311 -55 -426 -90
-290 -88 -580 -246 -816 -443 -115 -97 -316 -305 -299 -310 7 -3 15 -1 19 4
12 17 222 110 360 160 150 55 385 121 494 139 17 3 68 12 112 20 44 8 100 16
125 19 176 20 254 27 249 22 -2 -2 -49 -21 -104 -41 -625 -233 -1220 -749
-1598 -1386 -191 -323 -349 -742 -402 -1069 -3 -19 -8 -46 -10 -60 -8 -38 -22
-165 -30 -260 -12 -143 -6 -461 10 -547 2 -10 4 -33 4 -50 1 -18 6 -33 13 -33
6 0 9 2 6 5 -3 3 -2 25 3 48 4 23 10 62 14 87 3 25 13 74 21 110 107 446 314
848 636 1233 78 94 148 170 148 162 0 -3 -13 -32 -30 -64 -105 -209 -210 -545
-245 -786 -4 -22 -8 -51 -10 -64 -12 -74 -20 -206 -20 -356 0 -250 14 -372 70
-619 68 -297 245 -652 456 -913 72 -89 257 -277 309 -313 l34 -25 -21 35 c-18
30 -38 74 -118 255 -115 261 -213 689 -241 1053 -4 61 -4 425 0 477 20 228 30
276 34 154 4 -142 21 -295 47 -419 8 -37 16 -78 19 -92 18 -101 97 -344 161
-493 206 -481 554 -911 958 -1183 77 -53 239 -148 298 -175 248 -115 475 -184
699 -213 25 -3 56 -8 70 -11 38 -7 420 -10 460 -3 l35 6 -60 19 c-148 44 -390
153 -592 263 -93 51 -336 218 -448 308 -121 98 -378 349 -471 460 -93 112 -94
114 -84 114 5 0 12 -5 16 -11 13 -21 204 -158 311 -222 331 -199 679 -325
1053 -382 166 -25 181 -27 410 -29 308 -4 489 16 765 85 403 102 815 312 1136
581 24 20 55 46 69 57 14 12 18 19 10 16 -8 -2 -69 -23 -135 -45 -113 -39
-430 -133 -485 -144 -14 -3 -79 -17 -145 -31 -105 -22 -215 -41 -350 -60 -22
-3 -53 -7 -70 -10 -90 -14 -238 -20 -470 -20 -263 0 -334 5 -505 30 -19 3 -53
7 -75 11 -345 49 -829 222 -1091 389 -30 19 -56 35 -59 35 -7 0 -174 118 -239
169 -32 25 -93 72 -134 103 -287 217 -503 498 -636 832 -32 78 -79 233 -91
299 -3 12 -7 33 -10 47 -36 181 -41 499 -10 650 2 14 7 41 10 60 5 31 20 96
29 125 1 6 8 30 15 55 33 122 125 329 207 464 94 155 377 477 455 517 21 10
77 44 125 75 255 167 572 277 864 301 168 14 359 7 495 -17 33 -6 73 -14 90
-17 208 -37 531 -185 720 -328 463 -351 728 -841 771 -1425 2 -30 6 -84 10
-120 13 -150 4 -244 -37 -369 -88 -269 -310 -479 -584 -552 -80 -21 -278 -31
-350 -17 -89 17 -127 30 -220 73 -220 101 -385 299 -451 540 -24 86 -36 218
-23 250 5 14 8 15 8 4 1 -21 54 -123 84 -162 130 -170 319 -260 533 -252 315
13 586 294 585 609 -1 257 -139 469 -376 577 -60 27 -98 35 -270 58 -66 9
-301 7 -355 -3 -379 -69 -673 -257 -872 -558 -174 -262 -247 -604 -193 -903
49 -270 163 -493 349 -679 50 -50 100 -98 112 -107 173 -133 395 -231 579
-256 22 -3 58 -8 80 -12 69 -11 195 -8 505 15 243 17 567 90 832 187 398 146
714 344 960 603 44 47 138 167 134 171 -2 3 -77 -28 -201 -82 -46 -20 -242
-82 -325 -103 -86 -22 -190 -37 -174 -25 12 9 169 221 199 268 10 17 55 80
100 140 190 257 324 487 446 769 79 183 162 426 182 536 3 14 12 54 20 90 8
36 18 87 22 113 3 27 8 57 10 66 17 88 24 350 12 466 -8 81 -19 159 -22 163
-1 1 -24 -51 -50 -115 -27 -65 -70 -165 -97 -223 -49 -105 -181 -335 -199
-346 -5 -3 -9 5 -10 18 -2 72 -24 215 -55 356 -75 344 -213 643 -436 939 -69
93 -338 373 -357 373 -5 0 19 -60 53 -132 35 -73 69 -151 76 -173 7 -22 16
-44 20 -50 10 -14 97 -288 115 -365 29 -121 42 -183 51 -240 2 -19 7 -46 9
-60 5 -23 8 -49 19 -132 28 -209 28 -668 0 -843 -9 -60 -14 -55 -15 16 -9 539
-219 1141 -558 1594 -150 201 -314 367 -531 538 -133 105 -359 233 -545 310
-135 55 -333 112 -475 136 -36 6 -81 13 -100 17 -51 9 -492 14 -513 6z"/>
</g>
</svg>
