<?xml version="1.0" standalone="no"?>
<!DOCTYPE svg PUBLIC "-//W3C//DTD SVG 20010904//EN"
 "http://www.w3.org/TR/2001/REC-SVG-20010904/DTD/svg10.dtd">
<svg version="1.0" xmlns="http://www.w3.org/2000/svg"
 width="1024.000000pt" height="1024.000000pt" viewBox="0 0 1024.000000 1024.000000"
 preserveAspectRatio="xMidYMid meet">
<metadata>
Created by potrace 1.11, written by Peter Selinger 2001-2013
</metadata>
<g transform="translate(0.000000,1024.000000) scale(0.100000,-0.100000)"
fill="#000000" stroke="none">
<path d="M5488 9935 c-2 -1 -64 -5 -138 -9 -74 -4 -148 -9 -165 -11 -16 -2
-50 -7 -75 -10 -25 -3 -54 -7 -65 -9 -11 -2 -42 -7 -70 -11 -27 -4 -90 -16
-140 -27 -49 -11 -97 -21 -106 -23 -44 -9 -244 -67 -329 -95 -303 -101 -641
-267 -905 -443 -89 -60 -255 -180 -298 -216 -12 -10 -58 -49 -102 -86 -319
-267 -627 -636 -851 -1020 -62 -107 -177 -334 -189 -375 -4 -14 -11 -29 -15
-35 -5 -5 -20 -41 -34 -80 -15 -38 -30 -79 -36 -90 -29 -62 -129 -411 -145
-507 -33 -199 -46 -278 -50 -303 -8 -49 -18 -224 -18 -300 -1 -92 13 -406 17
-414 2 -3 7 -38 10 -77 4 -40 11 -98 17 -130 5 -33 11 -68 13 -79 2 -11 8 -45
15 -75 6 -30 13 -64 15 -76 8 -40 67 -250 90 -319 26 -80 32 -74 41 45 6 85
14 153 20 190 2 14 7 41 10 60 3 19 11 55 16 80 6 25 12 52 14 60 20 93 75
264 120 370 62 148 184 379 234 446 9 12 23 32 31 44 143 215 441 533 610 650
19 13 37 27 40 31 13 18 508 338 628 407 149 85 371 185 526 236 82 28 300 90
351 100 59 12 81 16 140 26 33 6 71 12 85 14 259 45 649 53 995 21 128 -12
418 -62 585 -101 303 -70 720 -206 965 -314 22 -10 76 -33 120 -53 196 -86
436 -204 613 -301 56 -31 104 -56 106 -56 18 0 536 -323 736 -459 208 -141
685 -491 702 -516 4 -5 8 -6 8 -1 0 19 -303 483 -437 669 -134 186 -333 434
-488 607 -53 60 -447 453 -510 510 -291 260 -669 540 -1035 765 -112 69 -425
248 -472 270 -21 9 -38 19 -38 22 0 4 206 -3 375 -12 44 -3 134 -7 200 -10 66
-3 152 -7 190 -10 39 -2 113 -7 165 -10 52 -3 109 -8 125 -10 17 -2 57 -7 90
-10 33 -3 94 -10 135 -15 41 -5 98 -12 125 -15 28 -3 75 -10 105 -15 30 -5 75
-12 100 -15 l45 -5 -45 40 c-86 77 -312 255 -428 337 -536 376 -1077 600
-1707 708 -16 2 -55 7 -85 11 -30 3 -68 8 -85 10 -61 8 -461 24 -467 19z"/>
<path d="M2465 9178 c-104 -36 -277 -109 -380 -162 -719 -371 -1263 -1120
-1515 -2090 -41 -155 -85 -360 -94 -437 -3 -24 -8 -53 -10 -64 -3 -19 -12 -82
-22 -170 -2 -22 -6 -56 -9 -75 -25 -190 -25 -769 0 -983 2 -18 7 -61 11 -97 9
-83 11 -102 18 -147 3 -21 8 -58 12 -83 3 -25 19 -110 35 -190 38 -186 37
-182 61 -270 11 -41 21 -82 23 -90 23 -101 123 -386 197 -560 250 -589 657
-1111 1107 -1420 157 -108 388 -240 420 -240 6 0 12 -4 15 -9 10 -15 -343 67
-514 121 -321 100 -672 241 -873 350 -48 26 -90 48 -93 48 -11 0 89 -176 163
-288 173 -263 417 -523 673 -719 303 -231 658 -410 1065 -536 142 -44 412
-107 520 -122 28 -4 59 -9 70 -10 11 -2 47 -6 80 -10 33 -4 69 -9 80 -11 41
-8 266 -18 410 -18 169 0 364 10 475 25 41 5 93 12 115 15 68 9 218 35 255 44
19 5 50 12 69 15 36 6 194 47 251 65 19 6 42 13 50 15 46 10 277 92 325 115
11 5 43 18 70 29 77 30 269 126 385 194 737 429 1238 1089 1430 1882 30 120
56 260 66 345 3 25 7 56 9 70 16 100 28 528 15 513 -4 -5 -27 -46 -51 -93 -67
-131 -233 -389 -274 -425 -6 -5 -18 -20 -26 -32 -29 -42 -136 -160 -229 -252
-340 -336 -806 -610 -1266 -745 -50 -15 -99 -28 -110 -30 -10 -2 -46 -11 -79
-19 -79 -21 -257 -54 -320 -61 -27 -3 -79 -8 -115 -11 -36 -4 -83 -8 -105 -10
-58 -6 -300 -6 -370 0 -138 11 -181 15 -205 20 -14 2 -43 6 -65 9 -65 7 -178
27 -185 31 -4 2 -22 7 -41 10 -70 12 -331 92 -404 124 -11 5 -67 28 -125 51
-254 102 -526 261 -734 429 -38 31 -83 67 -100 81 -47 37 -326 318 -371 374
-22 28 -48 59 -58 70 -62 74 -267 366 -267 382 0 3 -8 18 -19 32 -50 72 -184
340 -247 494 -167 406 -256 797 -289 1273 -6 78 -6 457 0 515 2 25 7 74 10
110 5 57 14 131 30 250 3 19 7 46 10 60 3 14 10 54 16 90 15 86 69 309 109
445 38 131 128 386 141 400 5 5 9 15 9 22 0 8 16 48 35 89 19 41 35 77 35 80
0 9 128 268 175 354 42 77 143 245 220 368 65 104 200 292 338 470 11 14 3 14
-38 0z"/>
<path d="M5008 7355 c-2 -2 -57 -5 -123 -6 -293 -4 -698 -89 -970 -204 -493
-207 -890 -518 -1167 -915 -116 -166 -196 -315 -265 -495 -34 -85 -76 -220
-87 -275 -7 -36 -24 -130 -31 -165 -36 -208 -21 -543 36 -770 99 -394 325
-763 628 -1023 30 -26 59 -51 65 -57 82 -73 243 -176 325 -207 151 -58 389
-117 541 -133 36 -4 74 -9 85 -11 29 -6 365 -6 395 0 29 6 76 12 145 21 93 13
310 73 425 120 381 153 720 417 932 725 41 60 148 237 147 243 0 1 13 32 30
70 89 198 143 448 143 662 1 589 -322 1126 -826 1372 -108 53 -240 95 -349
110 -65 10 -299 9 -349 0 -302 -56 -529 -191 -701 -417 -60 -79 -64 -87 -138
-245 -5 -11 -18 -60 -28 -109 -47 -217 7 -468 136 -632 108 -135 209 -206 349
-245 177 -48 353 -10 481 105 115 104 164 242 132 372 l-11 44 -27 -20 c-91
-71 -145 -90 -240 -86 -85 3 -147 31 -209 93 -179 179 -79 500 168 539 128 20
242 0 360 -62 163 -85 293 -267 331 -459 12 -61 14 -196 5 -252 -17 -95 -82
-249 -134 -316 -44 -57 -174 -177 -232 -215 -73 -47 -186 -94 -288 -119 -102
-25 -314 -22 -416 6 -181 48 -327 133 -461 266 -219 218 -335 505 -335 833 0
580 465 1120 1092 1266 210 49 462 50 673 2 11 -2 42 -9 69 -16 131 -30 354
-131 489 -222 511 -343 827 -936 830 -1558 2 -273 -29 -464 -114 -706 -29 -85
-136 -311 -181 -384 -191 -310 -424 -551 -727 -751 -74 -49 -132 -89 -128 -89
39 0 287 100 448 180 119 59 145 75 274 159 535 348 923 901 1043 1486 31 149
37 213 37 400 0 184 -7 266 -31 384 -9 42 -18 86 -20 97 -11 59 -92 273 -143
379 -160 331 -402 604 -726 820 -263 175 -562 296 -893 359 -152 30 -195 35
-332 42 -58 3 -110 7 -117 9 -6 2 -13 2 -15 0z"/>
<path d="M6610 7232 c48 -22 217 -160 349 -287 326 -312 596 -817 666 -1245 3
-19 14 -62 25 -95 19 -59 75 -285 85 -348 3 -17 8 -39 10 -47 2 -8 6 -32 9
-52 3 -21 9 -55 12 -75 11 -75 13 -89 20 -148 3 -33 8 -68 10 -79 2 -10 6 -66
10 -125 3 -58 8 -122 10 -141 4 -42 4 -437 -1 -534 -4 -93 -16 -225 -30 -346
-4 -36 -9 -76 -10 -90 -1 -14 -5 -43 -9 -65 -4 -22 -9 -58 -11 -80 -7 -52 -23
-148 -35 -205 -5 -25 -12 -56 -14 -70 -8 -48 -37 -175 -52 -235 -9 -33 -17
-68 -19 -77 -24 -119 -197 -659 -245 -763 -5 -11 -34 -81 -65 -155 -122 -293
-314 -654 -478 -900 -71 -107 -240 -338 -288 -394 -77 -90 -176 -203 -186
-214 -20 -21 -17 -21 50 -1 521 161 948 421 1353 827 127 127 141 142 257 284
245 300 482 705 631 1079 44 112 133 376 157 469 l12 45 28 -105 c16 -58 31
-118 34 -135 3 -16 8 -38 11 -47 3 -9 7 -25 9 -35 2 -10 15 -72 29 -138 39
-182 76 -416 91 -577 4 -34 8 -74 10 -87 26 -164 26 -865 0 -1000 -2 -11 -6
-46 -10 -77 -8 -71 -43 -278 -55 -323 -14 -50 -2 -33 100 144 144 252 305 581
400 820 61 153 173 483 195 575 2 8 15 60 30 115 22 89 54 235 69 319 3 16 10
52 15 80 5 28 12 75 16 105 3 30 8 64 10 75 3 12 7 46 10 76 2 30 8 91 12 135
15 161 8 599 -12 754 -1 14 -6 55 -10 91 -4 36 -9 74 -11 85 -2 11 -7 36 -10
55 -88 530 -280 1016 -577 1460 -48 71 -164 229 -177 240 -3 3 -16 19 -29 35
-80 105 -308 341 -430 445 -36 30 -73 63 -83 73 -35 33 -263 202 -363 268
-205 136 -527 309 -706 379 -30 12 -67 28 -84 35 -125 56 -473 172 -644 214
-83 21 -120 26 -91 13z"/>
</g>
</svg>
